<mxfile host="app.diagrams.net" modified="2023-03-28T15:02:48.038Z" agent="Mozilla/5.0 (Windows NT 10.0; Win64; x64; rv:109.0) Gecko/20100101 Firefox/112.0" etag="a_7fji-uAR3McW6d4N9F" version="21.1.1" type="github">
  <diagram name="Page-1" id="822b0af5-4adb-64df-f703-e8dfc1f81529">
    <mxGraphModel dx="2100" dy="1034" grid="1" gridSize="10" guides="1" tooltips="1" connect="1" arrows="1" fold="1" page="1" pageScale="1" pageWidth="1169" pageHeight="827" background="none" math="0" shadow="0">
      <root>
        <mxCell id="0" />
        <mxCell id="1" parent="0" />
        <mxCell id="FN1hSWL0M1Y1NXthPd3s-42" style="rounded=0;orthogonalLoop=1;jettySize=auto;html=1;entryX=0.9;entryY=0.267;entryDx=0;entryDy=0;entryPerimeter=0;" edge="1" parent="1" source="7d933b09d9755ecc-34" target="FN1hSWL0M1Y1NXthPd3s-39">
          <mxGeometry relative="1" as="geometry" />
        </mxCell>
        <mxCell id="FN1hSWL0M1Y1NXthPd3s-43" style="rounded=0;orthogonalLoop=1;jettySize=auto;html=1;entryX=0.5;entryY=0;entryDx=0;entryDy=0;entryPerimeter=0;" edge="1" parent="1" source="7d933b09d9755ecc-34" target="FN1hSWL0M1Y1NXthPd3s-40">
          <mxGeometry relative="1" as="geometry" />
        </mxCell>
        <mxCell id="FN1hSWL0M1Y1NXthPd3s-44" style="edgeStyle=none;rounded=0;orthogonalLoop=1;jettySize=auto;html=1;entryX=0.1;entryY=0.02;entryDx=0;entryDy=0;entryPerimeter=0;" edge="1" parent="1" source="7d933b09d9755ecc-34" target="FN1hSWL0M1Y1NXthPd3s-41">
          <mxGeometry relative="1" as="geometry" />
        </mxCell>
        <mxCell id="7d933b09d9755ecc-34" value="" style="verticalLabelPosition=bottom;aspect=fixed;html=1;verticalAlign=top;strokeColor=none;shape=mxgraph.citrix.tower_server;rounded=0;shadow=0;comic=0;fontFamily=Verdana;" parent="1" vertex="1">
          <mxGeometry x="1530" y="386" width="114.7" height="150" as="geometry" />
        </mxCell>
        <mxCell id="FN1hSWL0M1Y1NXthPd3s-38" style="edgeStyle=none;rounded=0;orthogonalLoop=1;jettySize=auto;html=1;entryX=0.506;entryY=0.013;entryDx=0;entryDy=0;entryPerimeter=0;strokeWidth=6;" edge="1" parent="1" source="7d933b09d9755ecc-38" target="7d933b09d9755ecc-34">
          <mxGeometry relative="1" as="geometry" />
        </mxCell>
        <mxCell id="7d933b09d9755ecc-38" value="" style="verticalLabelPosition=bottom;aspect=fixed;html=1;verticalAlign=top;strokeColor=none;shape=mxgraph.citrix.tower_server;rounded=0;shadow=0;comic=0;fontFamily=Verdana;" parent="1" vertex="1">
          <mxGeometry x="1530" y="132" width="120" height="156.92" as="geometry" />
        </mxCell>
        <mxCell id="FN1hSWL0M1Y1NXthPd3s-37" style="edgeStyle=none;rounded=0;orthogonalLoop=1;jettySize=auto;html=1;entryX=-0.083;entryY=0.472;entryDx=0;entryDy=0;entryPerimeter=0;strokeWidth=5;" edge="1" parent="1" target="7d933b09d9755ecc-38">
          <mxGeometry relative="1" as="geometry">
            <mxPoint x="966" y="205.12337010270062" as="sourcePoint" />
            <mxPoint x="1521.96" y="182.05747999999994" as="targetPoint" />
          </mxGeometry>
        </mxCell>
        <mxCell id="FN1hSWL0M1Y1NXthPd3s-29" value="" style="verticalLabelPosition=bottom;sketch=0;aspect=fixed;html=1;verticalAlign=top;strokeColor=none;align=center;outlineConnect=0;shape=mxgraph.citrix.proxy_server;" vertex="1" parent="1">
          <mxGeometry x="820" y="120" width="150" height="176.47" as="geometry" />
        </mxCell>
        <mxCell id="FN1hSWL0M1Y1NXthPd3s-34" style="edgeStyle=none;rounded=0;orthogonalLoop=1;jettySize=auto;html=1;shape=link;" edge="1" parent="1" source="FN1hSWL0M1Y1NXthPd3s-30" target="FN1hSWL0M1Y1NXthPd3s-29">
          <mxGeometry relative="1" as="geometry" />
        </mxCell>
        <mxCell id="FN1hSWL0M1Y1NXthPd3s-30" value="" style="sketch=0;pointerEvents=1;shadow=0;dashed=0;html=1;strokeColor=none;fillColor=#005F4B;labelPosition=center;verticalLabelPosition=bottom;verticalAlign=top;align=center;outlineConnect=0;shape=mxgraph.veeam2.tape_recording;" vertex="1" parent="1">
          <mxGeometry x="140" y="70" width="130" height="70" as="geometry" />
        </mxCell>
        <mxCell id="FN1hSWL0M1Y1NXthPd3s-35" style="rounded=0;orthogonalLoop=1;jettySize=auto;html=1;shape=link;" edge="1" parent="1" source="FN1hSWL0M1Y1NXthPd3s-31" target="FN1hSWL0M1Y1NXthPd3s-29">
          <mxGeometry relative="1" as="geometry" />
        </mxCell>
        <mxCell id="FN1hSWL0M1Y1NXthPd3s-31" value="" style="sketch=0;pointerEvents=1;shadow=0;dashed=0;html=1;strokeColor=none;fillColor=#005F4B;labelPosition=center;verticalLabelPosition=bottom;verticalAlign=top;align=center;outlineConnect=0;shape=mxgraph.veeam2.tape_recording;" vertex="1" parent="1">
          <mxGeometry x="140" y="190" width="136" height="70" as="geometry" />
        </mxCell>
        <mxCell id="FN1hSWL0M1Y1NXthPd3s-36" style="edgeStyle=none;rounded=0;orthogonalLoop=1;jettySize=auto;html=1;shape=link;" edge="1" parent="1" source="FN1hSWL0M1Y1NXthPd3s-32" target="FN1hSWL0M1Y1NXthPd3s-29">
          <mxGeometry relative="1" as="geometry" />
        </mxCell>
        <mxCell id="FN1hSWL0M1Y1NXthPd3s-32" value="" style="sketch=0;pointerEvents=1;shadow=0;dashed=0;html=1;strokeColor=none;fillColor=#005F4B;labelPosition=center;verticalLabelPosition=bottom;verticalAlign=top;align=center;outlineConnect=0;shape=mxgraph.veeam2.tape_recording;" vertex="1" parent="1">
          <mxGeometry x="140" y="460" width="136" height="70" as="geometry" />
        </mxCell>
        <mxCell id="FN1hSWL0M1Y1NXthPd3s-39" value="" style="verticalLabelPosition=bottom;html=1;verticalAlign=top;align=center;strokeColor=none;fillColor=#00BEF2;shape=mxgraph.azure.laptop;pointerEvents=1;" vertex="1" parent="1">
          <mxGeometry x="1320" y="690" width="100" height="60" as="geometry" />
        </mxCell>
        <mxCell id="FN1hSWL0M1Y1NXthPd3s-40" value="" style="verticalLabelPosition=bottom;html=1;verticalAlign=top;align=center;strokeColor=none;fillColor=#00BEF2;shape=mxgraph.azure.laptop;pointerEvents=1;" vertex="1" parent="1">
          <mxGeometry x="1490" y="690" width="100" height="60" as="geometry" />
        </mxCell>
        <mxCell id="FN1hSWL0M1Y1NXthPd3s-41" value="" style="verticalLabelPosition=bottom;html=1;verticalAlign=top;align=center;strokeColor=none;fillColor=#00BEF2;shape=mxgraph.azure.laptop;pointerEvents=1;" vertex="1" parent="1">
          <mxGeometry x="1770" y="680" width="100" height="60" as="geometry" />
        </mxCell>
        <mxCell id="FN1hSWL0M1Y1NXthPd3s-45" value="Vertical Container" style="swimlane;whiteSpace=wrap;html=1;dashed=1;dashPattern=12 12;strokeWidth=2;" vertex="1" parent="1">
          <mxGeometry x="1470" y="70" width="230" height="530" as="geometry" />
        </mxCell>
      </root>
    </mxGraphModel>
  </diagram>
</mxfile>
